{"title":"Blocking The Path To 9/11 [2008] ETC1337","uid":6576842,"size":737339392,"categoryP":"video","categoryS":"movies","magnet":"?xt=urn:btih:d4041f89b7cf2fbdb19b8b2c969f54da1db29184&amp;dn=Blocking+The+Path+To+9%2F11+%5B2008%5D+ETC1337&amp;tr=udp%3A%2F%2Ftracker.openbittorrent.com%3A80&amp;tr=udp%3A%2F%2Fopen.demonii.com%3A1337&amp;tr=udp%3A%2F%2Ftracker.coppersurfer.tk%3A6969&amp;tr=udp%3A%2F%2Fexodus.desync.com%3A6969","seeders":2,"leechers":0,"uploader":"ETC1337","files":-1,"time":1312234321,"description":"                 ETC1337 Presents &quot;Blocking The Path To 9/11&quot;\n\n                                 DvdRip 2008\n\nRequested by : Tpiom  \n\n[****Reseed request turned into Reupload as all other torrents dead****]\n\nSource provided by : GCJM\n\n\n\n\nWith Blocking the Path to 9/11, Citizens United Productions exposes the amazing untold story behind the public firestorm surrounding The Path to 9/11. It presents courageous interviews with the original film's writer/producer, director, and editors, as well as numerous terrorism experts and the head of the 9/11 Commission. This documentary sets the historical record straight with explosive new revelations. For all those who seek the truth about 9/11 and want to learn the real story behind this shocking saga, Blocking the Path to 9/11 is required viewing.\n\n\n\n[SPECS]\n\nFormat                           : AVI\nFormat/Info                      : Audio Video Interleave\nFile size                        : 703 MiB\nDuration                         : 1h 34mn\nOverall bit rate                 : 1 045 Kbps\nWriting application              : VirtualDubMod 1.5.10.2 (build 2540/release)\nWriting library                  : VirtualDubMod build 2540/release\n\nVideo\nID                               : 0\nFormat                           : MPEG-4 Visual\nFormat profile                   : Advanced Simple@L5\nFormat settings, BVOP            : 2\nFormat settings, QPel            : No\nFormat settings, GMC             : No warppoints\nFormat settings, Matrix          : Default (H.263)\nMuxing mode                      : Packed bitstream\nCodec ID                         : XVID\nCodec ID/Hint                    : XviD\nDuration                         : 1h 34mn\nBit rate                         : 843 Kbps\nWidth                            : 512 pixels\nHeight                           : 288 pixels\nDisplay aspect ratio             : 16:9\nFrame rate                       : 23.976 fps\nColor space                      : YUV\nChroma subsampling               : 4:2:0\nBit depth                        : 8 bits\nScan type                        : Progressive\nCompression mode                 : Lossy\nBits/(Pixel*Frame)               : 0.239\nStream size                      : 568 MiB (81%)\nWriting library                  : XviD 1.2.1 (UTC 2008-12-04)\n\nAudio\nID                               : 1\nFormat                           : AC-3\nFormat/Info                      : Audio Coding 3\nMode extension                   : CM (complete main)\nCodec ID                         : 2000\nDuration                         : 1h 34mn\nBit rate mode                    : Constant\nBit rate                         : 192 Kbps\nChannel(s)                       : 2 channels\nChannel positions                : Front: L R\nSampling rate                    : 48.0 KHz\nBit depth                        : 16 bits\nCompression mode                 : Lossy\nStream size                      : 129 MiB (18%)\nAlignment                        : Split accross interleaves\nInterleave, duration             : 42 ms (1.00 video frame)\nInterleave, preload duration     : 500 ms\n\n\n\n\n\n\n\n\nHave A Request? Ask me here:                 &lt;a href=&quot;\nhttp://forum.suprbay.org/member.php?action=register&amp;referrer=118982&quot; rel=&quot;nofollow&quot; target=&quot;_NEW&quot;&gt;\nhttp://forum.suprbay.org/member.php?action=register&amp;referrer=118982&lt;/a&gt;\n\n\n\nPlease, SEED, COMMENT, And ENJOY\n\nETC1337\t\n","torrent":{"xt":"urn:btih:d4041f89b7cf2fbdb19b8b2c969f54da1db29184","amp;dn":"Blocking+The+Path+To+9%2F11+%5B2008%5D+ETC1337","amp;tr":["udp%3A%2F%2Ftracker.openbittorrent.com%3A80","udp%3A%2F%2Fopen.demonii.com%3A1337","udp%3A%2F%2Ftracker.coppersurfer.tk%3A6969","udp%3A%2F%2Fexodus.desync.com%3A6969"],"infoHash":"d4041f89b7cf2fbdb19b8b2c969f54da1db29184","infoHashBuffer":{"type":"Buffer","data":[212,4,31,137,183,207,47,189,177,155,139,44,150,159,84,218,29,178,145,132]},"announce":[],"urlList":[]}}